<svg width="44" height="64" viewBox="0 0 44 64" fill="none" xmlns="http://www.w3.org/2000/svg">
<g clip-path="url(#clip0_327_1931)">
<path d="M22 32C22 29.1711 23.1238 26.458 25.1242 24.4576C27.1246 22.4572 29.8377 21.3334 32.6667 21.3334C35.4956 21.3334 38.2087 22.4572 40.2091 24.4576C42.2095 26.458 43.3333 29.1711 43.3333 32C43.3333 34.829 42.2095 37.5421 40.2091 39.5425C38.2087 41.5429 35.4956 42.6667 32.6667 42.6667C29.8377 42.6667 27.1246 41.5429 25.1242 39.5425C23.1238 37.5421 22 34.829 22 32Z" fill="#1ABCFE"/>
<path d="M0.666504 53.3333C0.666504 50.5043 1.79031 47.7912 3.7907 45.7908C5.79109 43.7904 8.50419 42.6666 11.3332 42.6666H21.9998V53.3333C21.9998 56.1623 20.876 58.8754 18.8756 60.8758C16.8753 62.8762 14.1621 64 11.3332 64C8.50419 64 5.79109 62.8762 3.7907 60.8758C1.79031 58.8754 0.666504 56.1623 0.666504 53.3333Z" fill="#0ACF83"/>
<path d="M22 0V21.3333H32.6667C35.4956 21.3333 38.2087 20.2095 40.2091 18.2091C42.2095 16.2087 43.3333 13.4956 43.3333 10.6667C43.3333 7.83769 42.2095 5.12458 40.2091 3.12419C38.2087 1.12381 35.4956 0 32.6667 0L22 0Z" fill="#FF7262"/>
<path d="M0.666504 10.6667C0.666504 13.4956 1.79031 16.2087 3.7907 18.2091C5.79109 20.2095 8.50419 21.3333 11.3332 21.3333H21.9998V0H11.3332C8.50419 0 5.79109 1.12381 3.7907 3.12419C1.79031 5.12458 0.666504 7.83769 0.666504 10.6667Z" fill="#F24E1E"/>
<path d="M0.666504 32C0.666504 34.829 1.79031 37.5421 3.7907 39.5425C5.79109 41.5429 8.50419 42.6667 11.3332 42.6667H21.9998V21.3334H11.3332C8.50419 21.3334 5.79109 22.4572 3.7907 24.4576C1.79031 26.458 0.666504 29.1711 0.666504 32Z" fill="#A259FF"/>
</g>
<defs>
<clipPath id="clip0_327_1931">
<rect width="42.6667" height="64" fill="white" transform="translate(0.666504)"/>
</clipPath>
</defs>
</svg>
