<svg width="57" height="64" viewBox="0 0 57 64" fill="none" xmlns="http://www.w3.org/2000/svg">
<g clip-path="url(#clip0_327_1894)">
<path d="M28.5446 64C27.6866 64 26.8858 63.7668 26.1422 63.3586L18.5349 58.7517C17.391 58.1102 17.9629 57.877 18.3061 57.7603C19.8505 57.2355 20.1365 57.1189 21.738 56.1859C21.9096 56.0692 22.1384 56.1275 22.3099 56.2442L28.1441 59.8014C28.373 59.918 28.6589 59.918 28.8305 59.8014L51.6525 46.3307C51.8813 46.214 51.9957 45.9808 51.9957 45.6892V18.806C51.9957 18.5145 51.8813 18.2812 51.6525 18.1646L28.8305 4.75223C28.6017 4.63561 28.3157 4.63561 28.1441 4.75223L5.3222 18.1646C5.09341 18.2812 4.97901 18.5728 4.97901 18.806V45.6892C4.97901 45.9224 5.09341 46.214 5.3222 46.3307L11.5568 50.0045C14.9315 51.7539 17.0477 49.7129 17.0477 47.6719V21.1386C17.0477 20.7888 17.3338 20.4389 17.7341 20.4389H20.6513C20.9944 20.4389 21.3376 20.7305 21.3376 21.1386V47.6719C21.3376 52.2788 18.8781 54.9613 14.5882 54.9613C13.2727 54.9613 12.2432 54.9613 9.32603 53.5034L3.32028 50.0045C1.83314 49.1297 0.917969 47.4969 0.917969 45.7475V18.8644C0.917969 17.115 1.83314 15.4822 3.32028 14.6074L26.1422 1.13672C27.5722 0.320313 29.5169 0.320313 30.9469 1.13672L53.7688 14.6074C55.2559 15.4822 56.1711 17.115 56.1711 18.8644V45.7475C56.1711 47.4969 55.2559 49.1297 53.7688 50.0045L30.9469 63.4752C30.2605 63.7668 29.4025 64 28.5446 64Z" fill="#5FA04E"/>
<path d="M35.6371 45.5142C25.6275 45.5142 23.5684 40.849 23.5684 36.8836C23.5684 36.5337 23.8543 36.1839 24.2547 36.1839H27.229C27.5722 36.1839 27.8582 36.4171 27.8582 36.767C28.3157 39.8576 29.6313 41.3738 35.6943 41.3738C40.4989 41.3738 42.558 40.2658 42.558 37.6417C42.558 36.1255 41.986 35.0175 34.4931 34.2594C28.2585 33.6179 24.3691 32.2184 24.3691 27.145C24.3691 22.4215 28.2585 19.6224 34.7791 19.6224C42.1004 19.6224 45.7039 22.1883 46.1615 27.7865C46.1615 27.9615 46.1043 28.1364 45.9899 28.3114C45.8755 28.4279 45.7039 28.5446 45.5323 28.5446H42.5008C42.2148 28.5446 41.9288 28.3114 41.8716 28.0197C41.1853 24.8124 39.4121 23.7627 34.7219 23.7627C29.4597 23.7627 28.8306 25.6289 28.8306 27.0284C28.8306 28.7195 29.5741 29.2444 36.6666 30.1774C43.702 31.1104 47.0195 32.4517 47.0195 37.4668C47.0195 42.5984 42.844 45.5142 35.6371 45.5142Z" fill="#5FA04E"/>
</g>
<defs>
<clipPath id="clip0_327_1894">
<rect width="56.32" height="64" fill="white" transform="translate(0.285156)"/>
</clipPath>
</defs>
</svg>
