<svg width="71" height="64" viewBox="0 0 71 64" fill="none" xmlns="http://www.w3.org/2000/svg">
<g clip-path="url(#clip0_327_1876)">
<path d="M35.5546 38.7725C39.227 38.7725 42.204 35.7404 42.204 32C42.204 28.2597 39.227 25.2275 35.5546 25.2275C31.8823 25.2275 28.9053 28.2597 28.9053 32C28.9053 35.7404 31.8823 38.7725 35.5546 38.7725Z" fill="#087EA4"/>
<path d="M35.5544 47.238C53.9161 47.238 68.8011 40.4157 68.8011 31.9999C68.8011 23.5842 53.9161 16.7618 35.5544 16.7618C17.1927 16.7618 2.30762 23.5842 2.30762 31.9999C2.30762 40.4157 17.1927 47.238 35.5544 47.238Z" stroke="#087EA4" stroke-width="3"/>
<path d="M22.5978 39.619C31.7786 55.8152 45.0221 65.5336 52.1778 61.3257C59.3336 57.1178 57.6919 40.5771 48.5111 24.3809C39.3302 8.18475 26.0868 -1.53366 18.9311 2.67422C11.7753 6.88211 13.417 23.4228 22.5978 39.619Z" stroke="#087EA4" stroke-width="3"/>
<path d="M22.5976 24.3808C13.4168 40.577 11.7751 57.1177 18.9309 61.3256C26.0866 65.5335 39.3301 55.8151 48.5109 39.6189C57.6917 23.4228 59.3334 6.88205 52.1776 2.67416C45.0219 -1.53372 31.7785 8.18469 22.5976 24.3808Z" stroke="#087EA4" stroke-width="3"/>
</g>
<defs>
<clipPath id="clip0_327_1876">
<rect width="69.8182" height="64" fill="white" transform="translate(0.645508)"/>
</clipPath>
</defs>
</svg>
