<svg width="105" height="64" viewBox="0 0 105 64" fill="none" xmlns="http://www.w3.org/2000/svg">
<g clip-path="url(#clip0_327_1923)">
<mask id="mask0_327_1923" style="mask-type:luminance" maskUnits="userSpaceOnUse" x="0" y="0" width="105" height="63">
<path d="M0.163574 0H104.891V62.8364H0.163574V0Z" fill="white"/>
</mask>
<g mask="url(#mask0_327_1923)">
<path fill-rule="evenodd" clip-rule="evenodd" d="M52.5272 0C38.5636 0 29.8363 6.98182 26.3454 20.9455C31.5818 13.9636 37.6908 11.3455 44.6727 13.0909C48.6562 14.0858 51.5032 16.9775 54.6547 20.1755C59.7883 25.3867 65.7306 31.4182 78.709 31.4182C92.6727 31.4182 101.4 24.4364 104.891 10.4727C99.6545 17.4545 93.5454 20.0727 86.5636 18.3273C82.5801 17.3324 79.733 14.4407 76.5815 11.2427C71.4479 6.03151 65.5056 0 52.5272 0ZM26.3454 31.4182C12.3818 31.4182 3.65448 38.4 0.163574 52.3636C5.39994 45.3818 11.509 42.7636 18.4908 44.5091C22.4744 45.5059 25.3214 48.3956 28.4729 51.5937C33.6065 56.8048 39.5488 62.8364 52.5272 62.8364C66.4908 62.8364 75.2181 55.8545 78.709 41.8909C73.4727 48.8727 67.3636 51.4909 60.3818 49.7455C56.3982 48.7505 53.5512 45.8589 50.3997 42.6608C45.2661 37.4497 39.3238 31.4182 26.3454 31.4182Z" fill="#38BDF8"/>
</g>
</g>
<defs>
<clipPath id="clip0_327_1923">
<rect width="104.727" height="64" fill="white" transform="translate(0.163574)"/>
</clipPath>
</defs>
</svg>
